<?xml version="1.0" standalone="no"?><!DOCTYPE svg PUBLIC "-//W3C//DTD SVG 1.1//EN" "http://www.w3.org/Graphics/SVG/1.1/DTD/svg11.dtd"><svg t="1597029714218" class="icon" viewBox="0 0 1024 1024" version="1.1" xmlns="http://www.w3.org/2000/svg" p-id="11558" xmlns:xlink="http://www.w3.org/1999/xlink" width="200" height="200"><defs><style type="text/css"></style></defs><path d="M955.53024 25.74336c-0.21504 4.10624-0.59904 8.21248-0.60928 12.3136-0.0256 176.56832-0.0256 353.13664-0.0256 529.70496 0 4.0448 0 8.09472 0 13.53216-18.24256-6.05696-35.1488-11.6736-52.92032-17.57696 0-159.46752 0-319.0784 0-479.2064-264.97024 0-529.0496 0-793.73312 0 0 262.23104 0 524.06784 0 787.28704 3.67104 0 7.33696 0 11.01312 0 113.05472 0 226.10432 0.06144 339.16416-0.14336 6.89664-0.01024 11.35104 2.2016 16.384 6.96832 14.90944 14.14656 30.74048 27.3152 46.72 41.29792-2.28864 0.19456-4.84352 0.59392-7.39328 0.59392-151.16288 0.04096-302.32576 0.04096-453.48864-0.01536-2.7904 0-5.58592-0.67072-8.37632-1.024 0-297.7536 0-595.51232 0-893.73696C353.3568 25.74336 654.44352 25.74336 955.53024 25.74336z" p-id="11559"></path><path d="M724.95104 938.53696c-19.03616-4.41856-38.4768-7.5776-57.0368-13.48096-79.46752-25.22112-139.67872-75.4176-185.66656-145.76128 15.55968-15.35488 30.3872-31.39584 46.65856-45.80352 48.24064-42.72128 101.74976-76.79488 164.58752-93.78304 87.00416-23.552 164.79744-3.36896 234.8288 51.42528 30.44864 23.82336 56.32 52.11136 79.92832 82.56512 1.3312 1.70496 2.95424 3.18464 4.43392 4.77184 0 1.26976 0 2.5344 0 3.80928-0.64 0.61952-1.50528 1.13152-1.87904 1.87904-39.46496 78.97088-104.05888 125.4144-188.90752 145.06496-18.69824 4.33664-37.94432 6.272-56.93952 9.31328C751.62112 938.53696 738.28352 938.53696 724.95104 938.53696zM843.53024 783.9488c-0.20992-52.58752-43.17696-95.04768-96.10752-94.98624-52.70016 0.06144-96.13312 43.0336-96.22528 95.21664-0.09216 52.66944 43.42272 95.46752 96.92672 95.3088C801.1008 879.32928 843.73504 836.62336 843.53024 783.9488z" p-id="11560"></path><path d="M753.65888 305.55648c-141.88544 0-282.78272 0-424.3712 0 0-25.03168 0-49.85344 0-75.13088 141.48608 0 282.5984 0 424.3712 0C753.65888 255.52896 753.65888 280.12032 753.65888 305.55648z" p-id="11561"></path><path d="M753.75616 369.3312c0 24.61184 0 48.90112 0 74.00448-141.6448 0-282.97728 0-424.73472 0 0-24.63744 0-48.97792 0-74.00448C470.50752 369.3312 611.85024 369.3312 753.75616 369.3312z" p-id="11562"></path><path d="M753.73056 506.86464c0 24.9344 0 49.51552 0 74.66496-141.5936 0-282.7264 0-424.49408 0 0-24.704 0-49.32096 0-74.66496C470.4256 506.86464 611.78368 506.86464 753.73056 506.86464z" p-id="11563"></path><path d="M184.58112 579.75808c0-24.1408 0-47.45728 0-71.30112 24.15616 0 47.80544 0 72.15616 0 0 23.63904 0 47.21152 0 71.30112C232.74496 579.75808 209.1008 579.75808 184.58112 579.75808z" p-id="11564"></path><path d="M184.81152 229.8624c24.22784 0 47.86176 0 72.57088 0 0 22.58432 0.11264 44.672-0.24064 66.75968-0.0256 1.6384-3.4048 4.5824-5.25312 4.608-22.10816 0.32256-44.22656 0.20992-67.08224 0.20992C184.81152 277.30432 184.81152 254.08 184.81152 229.8624z" p-id="11565"></path><path d="M257.024 370.95424c0 23.92576 0 46.98112 0 70.88128-23.97696 0-47.55968 0-72.05888 0 0-23.25504 0-46.7712 0-70.88128C208.72192 370.95424 232.3712 370.95424 257.024 370.95424z" p-id="11566"></path></svg>