<?xml version="1.0" standalone="no"?><!DOCTYPE svg PUBLIC "-//W3C//DTD SVG 1.1//EN" "http://www.w3.org/Graphics/SVG/1.1/DTD/svg11.dtd"><svg t="1611639887130" class="icon" viewBox="0 0 1024 1024" version="1.1" xmlns="http://www.w3.org/2000/svg" p-id="2534" xmlns:xlink="http://www.w3.org/1999/xlink" width="200" height="200"><defs><style type="text/css"></style></defs><path d="M12.672 576.896c-15.744-17.92-15.744-37.12 0-57.92 26.048-22.4 63.232-21.312 111.552 3.456l169.92 123.84H512l63.488-56.064-111.68-21.184C407.744 558.72 381.12 537.6 384 505.6c2.816-31.872 19.904-51.584 51.2-59.008h333.952a12.8 12.8 0 0 1 8.64 3.328l236.8 216.448a12.8 12.8 0 0 1 0.768 18.112L823.424 893.952a12.8 12.8 0 0 1-17.472 1.28l-109.76-89.024H274.304a12.8 12.8 0 0 1-8.512-3.264L12.672 576.896z m93.952-215.68a12.8 12.8 0 0 1-12.8-12.8v-51.2c0-7.104 5.76-12.8 12.8-12.8h486.4c7.04 0 12.8 5.696 12.8 12.8v51.2a12.8 12.8 0 0 1-12.8 12.8h-486.4z m0-153.344a12.8 12.8 0 0 1-12.8-12.8v-51.2c0-7.04 5.76-12.8 12.8-12.8h486.4c7.04 0 12.8 5.76 12.8 12.8v51.2a12.8 12.8 0 0 1-12.8 12.8h-486.4z" p-id="2535"></path></svg>