<?xml version="1.0" standalone="no"?><!DOCTYPE svg PUBLIC "-//W3C//DTD SVG 1.1//EN" "http://www.w3.org/Graphics/SVG/1.1/DTD/svg11.dtd"><svg t="1597029567541" class="icon" viewBox="0 0 1024 1024" version="1.1" xmlns="http://www.w3.org/2000/svg" p-id="10079" xmlns:xlink="http://www.w3.org/1999/xlink" width="200" height="200"><defs><style type="text/css"></style></defs><path d="M73.56 719.53l139.377-139.377a50.404 50.404 0 0 1 47.047-15.246c14.336 3.754 20.992 15.246 24.804 28.16 3.811 12.97-3.812 36.181-17.351 47.786l-74.81 70.429h290.987c16.896 0 32.598 5.916 41.017 20.537a47.388 47.388 0 0 1 0 47.445c-8.42 14.62-24.12 19.342-41.017 19.342H192.628l74.809 72.59c12.003 11.947 21.845 33.337 17.35 47.787-4.55 14.507-13.425 21.049-25.998 24.52-12.572 3.413-33.848-0.171-45.852-12.118L70.715 789.163a47.332 47.332 0 0 1-13.312-40.335 47.275 47.275 0 0 1 16.156-29.297z" p-id="10080"></path><path d="M718.62 944.754a47.388 47.388 0 0 1-41.016-23.723c-8.534-14.62-8.534-25.088 0-39.765A47.388 47.388 0 0 1 718.62 857.6h150.073l-3.015-495.275L512 152.405 143.132 362.382v116.054c0 26.168-17.066 45.226-43.235 45.226-26.283-0.057-43.008-19.058-43.008-45.226V336.213c0-16.327 8.363-31.573 22.243-40.277L486.798 62.692a47.388 47.388 0 0 1 50.29 0l393.216 233.244c13.88 8.704 22.357 23.893 22.3 40.334l3.016 561.095c0 26.17-21.22 47.389-47.446 47.389h-189.61 0.056z" p-id="10081"></path></svg>