<?xml version="1.0" standalone="no"?><!DOCTYPE svg PUBLIC "-//W3C//DTD SVG 1.1//EN" "http://www.w3.org/Graphics/SVG/1.1/DTD/svg11.dtd"><svg t="1598501102472" class="icon" viewBox="0 0 1024 1024" version="1.1" xmlns="http://www.w3.org/2000/svg" p-id="5445" xmlns:xlink="http://www.w3.org/1999/xlink" width="200" height="200"><defs><style type="text/css"></style></defs><path d="M515.072 47.104c1.024 0 4.096 0 6.144 2.048l422.912 422.912c-32.768 2.048-55.296 25.6-55.296 59.392l0 430.08c-3.072 8.192-8.192 14.336-10.24 15.36l-200.704 0c-3.072 0-9.216-6.144-10.24-9.216L667.648 727.04c0-34.816-24.576-59.392-59.392-59.392L417.792 667.648c-34.816 0-59.392 24.576-59.392 59.392l0 239.616c0 2.048 0 9.216-9.216 9.216l-201.728 0c-3.072 0-9.216-6.144-10.24-9.216L137.216 537.6c0-33.792-22.528-58.368-55.296-59.392L508.928 49.152C510.976 47.104 514.048 47.104 515.072 47.104M515.072 6.144C502.784 6.144 489.472 11.264 480.256 20.48l-466.944 466.944c-6.144 6.144-25.6 31.744 6.144 31.744l56.32 0c12.288 0 18.432 6.144 18.432 18.432l0 429.056c0 25.6 25.6 50.176 50.176 50.176L348.16 1016.832c31.744 0 50.176-25.6 50.176-50.176L398.336 727.04c0-12.288 6.144-18.432 18.432-18.432l189.44 0c12.288 0 18.432 6.144 18.432 18.432l0 239.616c0 25.6 25.6 50.176 50.176 50.176l201.728 0c25.6 0 44.032-25.6 50.176-50.176L926.72 531.456c0-12.288 6.144-18.432 18.432-18.432l56.32 0c39.936 0 12.288-25.6 12.288-25.6L549.888 20.48C540.672 11.264 527.36 6.144 515.072 6.144L515.072 6.144z" p-id="5446"></path></svg>