<?xml version="1.0" standalone="no"?><!DOCTYPE svg PUBLIC "-//W3C//DTD SVG 1.1//EN" "http://www.w3.org/Graphics/SVG/1.1/DTD/svg11.dtd"><svg t="1598520407375" class="icon" viewBox="0 0 1144 1024" version="1.1" xmlns="http://www.w3.org/2000/svg" p-id="1915" xmlns:xlink="http://www.w3.org/1999/xlink" width="223.4375" height="200"><defs><style type="text/css"></style></defs><path d="M787.012239 1024L260.43588 797.717621H0V226.232989h260.43588L787.012239 0zM43.21665 754.500971h226.109513l474.469426 203.859111v-892.732512l-474.469426 203.859112H43.21665zM855.763755 801.113215v-43.21665c135.6015 0 245.915086-110.313586 245.915086-245.915086s-110.313586-245.927434-245.915086-245.927434v-43.21665a287.242551 287.242551 0 0 1 204.451798 84.679939 287.242551 287.242551 0 0 1 84.692286 204.464145 287.242551 287.242551 0 0 1-84.692286 204.451797 287.242551 287.242551 0 0 1-204.451798 84.679939z" p-id="1916"></path></svg>