<?xml version="1.0" standalone="no"?><!DOCTYPE svg PUBLIC "-//W3C//DTD SVG 1.1//EN" "http://www.w3.org/Graphics/SVG/1.1/DTD/svg11.dtd"><svg t="1602475136802" class="icon" viewBox="0 0 1024 1024" version="1.1" xmlns="http://www.w3.org/2000/svg" p-id="7282" xmlns:xlink="http://www.w3.org/1999/xlink" width="200" height="200"><defs><style type="text/css"></style></defs><path d="M910.222222 455.111111 682.666667 455.111111C619.832889 455.111111 568.888889 404.167111 568.888889 341.333333L568.888889 113.777778C568.888889 50.944 619.832889 0 682.666667 0L910.222222 0C973.056 0 1024 50.944 1024 113.777778L1024 341.333333C1024 404.167111 973.056 455.111111 910.222222 455.111111ZM967.111111 113.777778C967.111111 82.346667 941.653333 56.888889 910.222222 56.888889L682.666667 56.888889C651.235556 56.888889 625.777778 82.346667 625.777778 113.777778L625.777778 341.333333C625.777778 372.764444 651.235556 398.222222 682.666667 398.222222L910.222222 398.222222C941.653333 398.222222 967.111111 372.764444 967.111111 341.333333L967.111111 113.777778ZM341.333333 1024 113.777778 1024C50.944 1024 0 973.056 0 910.222222L0 682.666667C0 619.832889 50.944 568.888889 113.777778 568.888889L341.333333 568.888889C404.167111 568.888889 455.111111 619.832889 455.111111 682.666667L455.111111 910.222222C455.111111 973.056 404.167111 1024 341.333333 1024ZM398.222222 682.666667C398.222222 651.235556 372.764444 625.777778 341.333333 625.777778L113.777778 625.777778C82.346667 625.777778 56.888889 651.235556 56.888889 682.666667L56.888889 910.222222C56.888889 941.653333 82.346667 967.111111 113.777778 967.111111L341.333333 967.111111C372.764444 967.111111 398.222222 941.653333 398.222222 910.222222L398.222222 682.666667ZM682.666667 568.888889 910.222222 568.888889C973.056 568.888889 1024 619.832889 1024 682.666667L1024 910.222222C1024 973.056 973.056 1024 910.222222 1024L682.666667 1024C619.832889 1024 568.888889 973.056 568.888889 910.222222L568.888889 682.666667C568.888889 619.832889 619.832889 568.888889 682.666667 568.888889ZM625.777778 910.222222C625.777778 941.653333 651.235556 967.111111 682.666667 967.111111L910.222222 967.111111C941.653333 967.111111 967.111111 941.653333 967.111111 910.222222L967.111111 682.666667C967.111111 651.235556 941.653333 625.777778 910.222222 625.777778L682.666667 625.777778C651.235556 625.777778 625.777778 651.235556 625.777778 682.666667L625.777778 910.222222Z" p-id="7283"></path></svg>