<?xml version="1.0" standalone="no"?><!DOCTYPE svg PUBLIC "-//W3C//DTD SVG 1.1//EN" "http://www.w3.org/Graphics/SVG/1.1/DTD/svg11.dtd"><svg t="1602473140401" class="icon" viewBox="0 0 1026 1024" version="1.1" xmlns="http://www.w3.org/2000/svg" p-id="4054" xmlns:xlink="http://www.w3.org/1999/xlink" width="200.390625" height="200"><defs><style type="text/css"></style></defs><path d="M990.802993 1024H52.604489c-18.386035 0-33.197007-14.810973-33.197008-33.197007V395.299751c0-18.386035 14.810973-33.197007 33.197008-33.197008H990.802993c18.386035 0 33.197007 14.810973 33.197007 33.197008V990.802993c0 18.386035-14.810973 33.197007-33.197007 33.197007z m-915.215961-56.179551h892.233417V418.282294H75.587032v549.538155z" p-id="4055"></path><path d="M518.894763 64.351122m-64.351122 0a64.351122 64.351122 0 1 0 128.702244 0 64.351122 64.351122 0 1 0-128.702244 0Z" p-id="4056"></path><path d="M766.084788 403.471322l-244.636409-244.636409L277.322693 403.471322l-39.836409-39.836409 283.962095-284.472818 284.472818 284.472818z" p-id="4057"></path><path d="M821.753616 631.253865H221.653865c-15.321696 0-28.089776-12.76808-28.089775-28.089775s12.76808-28.089776 28.089775-28.089776h600.099751c15.321696 0 28.089776 12.76808 28.089776 28.089776s-12.76808 28.089776-28.089776 28.089775zM524.512718 805.410474H221.653865c-15.321696 0-28.089776-12.76808-28.089775-28.089776s12.76808-28.089776 28.089775-28.089775h302.858853c15.321696 0 28.089776 12.76808 28.089776 28.089775s-12.76808 28.089776-28.089776 28.089776z" p-id="4058"></path></svg>