<?xml version="1.0" standalone="no"?><!DOCTYPE svg PUBLIC "-//W3C//DTD SVG 1.1//EN" "http://www.w3.org/Graphics/SVG/1.1/DTD/svg11.dtd"><svg t="1597029138663" class="icon" viewBox="0 0 1032 1024" version="1.1" xmlns="http://www.w3.org/2000/svg" p-id="6595" xmlns:xlink="http://www.w3.org/1999/xlink" width="201.5625" height="200"><defs><style type="text/css"></style></defs><path d="M981.686 389.29h-76.165c-8.463-25.39-16.926-50.778-33.852-76.166l59.24-59.24c8.463-8.463 8.463-33.85 0-42.314L803.967 84.628c-8.463-8.463-33.851-8.463-42.314 0l-59.24 50.777-76.165-25.388V33.85C626.248 16.926 617.785 0 600.86 0H414.678c-16.926 0-25.389 16.926-25.389 33.851v76.166l-76.165 25.388-59.24-50.777c-8.463-8.463-33.85-8.463-42.314 0L84.628 211.57c-8.463 8.463-8.463 33.851 0 42.314l50.777 50.777c-8.463 33.851-16.926 59.24-25.388 84.628H33.85C16.926 389.29 0 397.752 0 414.678v177.719c0 16.925 16.926 33.85 33.851 33.85h76.166l25.388 76.166-50.777 59.24c-8.463 8.463-8.463 33.851 0 42.314L211.57 930.909c8.463 8.463 33.851 8.463 42.314 0l50.777-50.777c25.389 16.926 50.777 25.389 76.165 33.851v76.166c0 16.925 16.926 33.851 33.852 33.851h177.719c16.925 0 33.85-16.926 33.85-33.851v-76.166c25.39-8.462 50.778-16.925 76.166-33.85l59.24 50.776c8.463 8.463 33.851 8.463 42.314 0l126.942-126.942c8.463-8.463 8.463-33.851 0-42.314l-50.777-50.777c16.926-25.388 25.389-50.777 33.851-76.165h76.166c16.925 0 33.851-16.926 33.851-33.851V414.678c-8.463-16.926-25.388-25.389-42.314-25.389z m-33.851 177.718h-67.703c-16.925 0-25.388 8.463-33.851 25.389 0 33.85-16.926 67.702-33.851 101.553-8.463 8.463-8.463 25.389 0 42.314l50.777 50.777-84.628 84.628-42.315-59.24c-16.925-8.462-33.85-8.462-42.314 0-33.85 16.926-67.702 33.852-101.553 42.315-16.926 0-25.389 16.925-25.389 33.851v67.703h-118.48v-67.703c0-16.926-8.462-25.388-25.388-33.851-33.85-8.463-67.702-25.389-101.553-42.314-8.463-8.463-25.389-8.463-42.314 0l-50.777 50.777-84.628-84.628 50.777-50.777c8.462-8.463 8.462-25.389 8.462-42.314-16.925-25.389-33.85-59.24-42.314-93.091 0-16.926-16.925-25.389-33.85-25.389h-59.24v-118.48h67.702c16.926 0 25.388-8.462 33.851-25.388 0-33.85 16.926-67.702 33.851-101.553 8.463-8.463 8.463-25.389-8.462-42.314l-42.314-42.314 84.628-84.628 50.777 50.776c8.462 8.463 25.388 8.463 42.314 8.463 25.388-25.388 59.24-42.314 93.09-50.777 16.926 0 25.389-16.925 25.389-33.85v-59.24h118.48v67.702c0 16.926 8.462 25.388 25.388 33.851 33.85 0 67.702 16.926 101.553 33.851 8.463 8.463 25.389 8.463 42.314-8.462l50.777-50.777 84.628 84.628-59.24 50.777c-8.462 16.925-8.462 33.851 0 42.314 16.926 33.851 33.852 67.702 42.315 101.553 0 16.926 16.925 25.389 33.851 25.389h67.703v118.48z" p-id="6596"></path><path d="M507.769 321.587c-101.554 0-186.182 84.628-186.182 186.182S406.215 693.95 507.769 693.95 693.95 609.322 693.95 507.77 609.322 321.587 507.77 321.587z m0 313.124c-67.703 0-126.943-59.24-126.943-126.942s59.24-126.943 126.943-126.943S634.71 440.066 634.71 507.77 575.47 634.71 507.769 634.71z" p-id="6597"></path></svg>