<?xml version="1.0" standalone="no"?><!DOCTYPE svg PUBLIC "-//W3C//DTD SVG 1.1//EN" "http://www.w3.org/Graphics/SVG/1.1/DTD/svg11.dtd"><svg t="1602474677990" class="icon" viewBox="0 0 1024 1024" version="1.1" xmlns="http://www.w3.org/2000/svg" p-id="4785" xmlns:xlink="http://www.w3.org/1999/xlink" width="200" height="200"><defs><style type="text/css"></style></defs><path d="M462.72 771.968z" p-id="4786"></path><path d="M241.92 486.528c0-0.704 0-1.344-0.64-2.688 0 3.328 0 4.032 0.64 2.688z m-1.984-6.144c1.344 1.408 1.344 2.688 1.344 3.392v-1.984s-0.704-0.64-1.344-1.408z" p-id="4787"></path><path d="M479.616 693.184c40.384-43.84 81.472-88.192 121.856-131.968 40.448-44.48 81.472-90.176 121.984-131.968v-0.704a19.328 19.328 0 0 0 6.656-14.848v-3.968c0-12.096-11.456-22.912-26.304-22.912H590.656c0-5.376-0.704-10.112-1.344-15.424l-8.832-38.4a408.96 408.96 0 0 0-16.704-41.088 275.648 275.648 0 0 0-33.024-53.184 285.568 285.568 0 0 0-45.12-44.48c-66.624-54.4-159.552-86.144-251.84-97.6a2623.296 2623.296 0 0 0-77.312-6.656c-2.688 0-6.144-0.64-6.144-0.64a46.528 46.528 0 0 0-10.752-1.408h-17.536c-15.488 0-30.976-0.64-44.416 4.736-21.568 8.064-16.128 36.992 6.08 40.96 0.64 0 1.344 0 1.344 0.704l6.016 2.048c4.096 1.344 8.064 3.456 12.8 5.376 8.768 4.032 18.176 8.064 26.944 12.16 17.536 8 34.368 16.832 50.496 26.24 16.896 9.408 27.648 16.128 43.84 27.648 14.784 10.752 28.928 22.144 42.368 33.664 3.328 3.328 6.08 6.016 9.408 8.704 1.408 1.344 2.048 2.688 3.392 4.032 0 0 3.392 2.688 3.392 3.392 6.016 6.016 11.456 12.8 16.128 19.52 5.376 6.08 9.408 12.8 13.504 19.52 5.376 8.064 7.424 12.8 10.752 19.52 2.688 5.376 4.032 10.752 6.016 16.832 0 0 1.344 7.424 3.392 22.912v15.488h2.048c0 4.032 0 8-0.704 12.032v4.032l-87.552-1.92h-3.328l-41.792-4.736c-17.472-1.408-31.616 6.72-32.96 17.536l-0.64 4.032a15.808 15.808 0 0 0 6.016 14.08v0.64c12.864 12.8 33.024 29.632 47.872 43.776 8.064 7.424 14.784 14.144 17.536 18.816v0.64c0.576 0.832 1.28 1.472 1.28 1.472 63.936 70.656 127.168 141.312 190.528 211.392 13.504 14.784 34.304 14.144 47.808 0zM263.488 431.296c31.616 0.704 62.592 1.344 94.208 1.344 11.52 0.704 24.256-6.72 26.304-16.192a211.2 211.2 0 0 0 6.08-53.824 165.248 165.248 0 0 0-12.096-55.872c-14.144-35.008-39.104-65.92-68.032-93.568-28.928-26.944-63.296-49.856-98.304-70.72-1.984-1.344-4.032-1.984-6.144-3.392 2.048 0 4.096 0 6.08 0.704 18.944 1.344 45.824 6.08 68.736 11.456 10.752 1.92 21.568 4.672 32.32 8 4.672 1.408 10.048 2.688 14.784 4.736 2.688 0.64 5.376 1.408 7.36 2.048 1.344 0.64 2.688 0.64 4.032 1.28 0.704 0 1.344 0.704 2.048 0.704 20.16 7.424 39.68 16.128 57.856 25.6 18.944 10.176 31.04 18.88 48.512 32.32 7.424 6.08 14.784 12.8 21.568 18.816 1.344 2.048 3.328 3.392 4.736 5.376 0.64 0 0.64 0.704 0.64 0.704 0.64 0 0.64 0.64 1.344 1.344 4.032 4.032 7.36 8 10.752 12.8 5.376 7.424 10.752 14.784 15.488 22.208 6.08 10.752 8.768 15.552 13.44 25.6 8.064 18.816 15.488 37.696 19.52 57.28v1.344c0 1.344 0.64 3.328 0.64 4.672 0 4.032 0.64 8.064 0.64 12.096l2.048 21.568c2.112 12.096 11.52 22.272 27.712 22.272h85.504c-32.256 35.008-63.232 69.312-94.912 103.68-33.728 36.288-66.688 72.704-100.288 108.992-64.064-71.36-128.64-142.016-192.576-213.376z" p-id="4788"></path><path d="M702.016 129.984H960v68.032h-257.984z" p-id="4789"></path><path d="M896 192h64v768h-64zM64 896h832v64H64zM64 576h64v320H64z" p-id="4790"></path></svg>