<?xml version="1.0" standalone="no"?><!DOCTYPE svg PUBLIC "-//W3C//DTD SVG 1.1//EN" "http://www.w3.org/Graphics/SVG/1.1/DTD/svg11.dtd"><svg t="1597029291418" class="icon" viewBox="0 0 1024 1024" version="1.1" xmlns="http://www.w3.org/2000/svg" p-id="7675" xmlns:xlink="http://www.w3.org/1999/xlink" width="200" height="200"><defs><style type="text/css"></style></defs><path d="M672.914286 0c36.571429 0 58.514286 29.257143 73.142857 73.142857h138.971428c36.571429 0 58.514286 21.942857 65.828572 58.514286V958.171429c0 36.571429-29.257143 58.514286-58.514286 65.828571H138.971429c-36.571429 0-65.828571-21.942857-65.828572-58.514286V138.971429c0-36.571429 29.257143-58.514286 58.514286-65.828572h109.714286c7.314286-43.885714 36.571429-73.142857 73.142857-73.142857h358.4z m190.171428 146.285714H753.371429c-7.314286 43.885714-36.571429 73.142857-73.142858 73.142857h-365.714285c-36.571429 0-65.828571-29.257143-73.142857-73.142857H160.914286c-7.314286 0-14.628571 7.314286-14.628572 14.628572v775.314285c0 7.314286 7.314286 14.628571 14.628572 14.628572h709.485714c7.314286 0 14.628571-7.314286 14.628571-14.628572V160.914286c-7.314286-7.314286-14.628571-14.628571-21.942857-14.628572zM694.857143 629.028571c21.942857 0 36.571429 14.628571 36.571428 36.571429s-14.628571 36.571429-36.571428 36.571429H416.914286l65.828571 65.828571c14.628571 14.628571 14.628571 36.571429 0 51.2-7.314286 7.314286-14.628571 7.314286-29.257143 7.314286s-14.628571 7.314286-21.942857 0L299.885714 694.857143C292.571429 680.228571 292.571429 665.6 292.571429 650.971429c7.314286-14.628571 21.942857-21.942857 36.571428-21.942858h365.714286zM592.457143 380.342857L724.114286 512c7.314286 7.314286 7.314286 21.942857 7.314285 36.571429-7.314286 14.628571-21.942857 21.942857-36.571428 21.942857h-365.714286c-21.942857 0-36.571429-14.628571-36.571428-36.571429s14.628571-36.571429 36.571428-36.571428h277.942857l-65.828571-65.828572c-14.628571-14.628571-14.628571-36.571429 0-51.2 14.628571-21.942857 36.571429-14.628571 51.2 0z m73.142857-307.2H343.771429c-14.628571 0-21.942857 14.628571-21.942858 36.571429s7.314286 36.571429 14.628572 36.571428h329.142857c14.628571 0 21.942857-14.628571 21.942857-36.571428 0-14.628571-7.314286-29.257143-21.942857-36.571429z" p-id="7676"></path></svg>