<?xml version="1.0" standalone="no"?><!DOCTYPE svg PUBLIC "-//W3C//DTD SVG 1.1//EN" "http://www.w3.org/Graphics/SVG/1.1/DTD/svg11.dtd"><svg t="1597028828110" class="icon" viewBox="0 0 1024 1024" version="1.1" xmlns="http://www.w3.org/2000/svg" p-id="3177" xmlns:xlink="http://www.w3.org/1999/xlink" width="200" height="200"><defs><style type="text/css"></style></defs><path d="M960 96v832a32 32 0 0 1-32 32H96a32 32 0 0 1-32-32V96a32 32 0 0 1 32-32h832a32 32 0 0 1 32 32zM128 128v768h768V128z m384 192h320v64h-320z m0 256h320v64h-320zM192 366.04l43.876-45.252 50.912 50.912 115.964-115.968 45.256 45.256-138.592 138.592a32 32 0 0 1-45.256 0zM384 544v128a32 32 0 0 1-32 32H224a32 32 0 0 1-32-32v-128a32 32 0 0 1 32-32h128a32 32 0 0 1 32 32z m-128 32v64h64v-64z" p-id="3178"></path></svg>