<?xml version="1.0" standalone="no"?><!DOCTYPE svg PUBLIC "-//W3C//DTD SVG 1.1//EN" "http://www.w3.org/Graphics/SVG/1.1/DTD/svg11.dtd"><svg t="1611544228947" class="icon" viewBox="0 0 1024 1024" version="1.1" xmlns="http://www.w3.org/2000/svg" p-id="1113" xmlns:xlink="http://www.w3.org/1999/xlink" width="200" height="200"><defs><style type="text/css"></style></defs><path d="M511.914 63.99c-247.012 0-447.925 200.912-447.925 447.924s200.913 447.925 447.925 447.925 447.925-200.913 447.925-447.925S758.926 63.989 511.914 63.989z m0 831.687c-211.577 0-383.763-172.186-383.763-383.763 0-211.577 172.014-383.763 383.763-383.763s383.763 172.014 383.763 383.763-172.186 383.763-383.763 383.763z" p-id="1114"></path><path d="M672.06 511.914H512.085v-223.79c0-17.718-14.277-32.167-31.995-32.167-17.717 0-31.994 14.45-31.994 32.167V544.08c0 17.717 14.277 31.994 31.994 31.994H672.06c17.718 0 32.167-14.277 32.167-31.994-0.172-17.89-14.621-32.167-32.167-32.167z" p-id="1115"></path></svg>