<?xml version="1.0" standalone="no"?><!DOCTYPE svg PUBLIC "-//W3C//DTD SVG 1.1//EN" "http://www.w3.org/Graphics/SVG/1.1/DTD/svg11.dtd"><svg t="1603260612294" class="icon" viewBox="0 0 1024 1024" version="1.1" xmlns="http://www.w3.org/2000/svg" p-id="2867" xmlns:xlink="http://www.w3.org/1999/xlink" width="200" height="200"><defs><style type="text/css"></style></defs><path d="M223.425605 449.2744l161.632237 0 0 253.65714c0 16.954137 13.745049 30.699186 30.699186 30.699186 16.95516 0 30.699186-13.745049 30.699186-30.699186l0-284.356326c0-16.95516-13.744026-30.699186-30.699186-30.699186L291.035446 387.876028l217.23665-248.51605L733.039255 387.580293 607.104031 387.580293c-16.954137 0-30.699186 13.745049-30.699186 30.699186l0 284.652062c0 16.954137 13.745049 30.699186 30.699186 30.699186s30.699186-13.745049 30.699186-30.699186L637.803217 448.978664l164.448376 0c12.140505 0 23.140023-7.154957 28.063149-18.251689 4.922103-11.097756 2.841721-24.053835-5.307889-33.05279L530.62315 72.570829c-5.881964-6.495948-14.273075-10.134825-23.024389-10.091846-8.763594 0.076748-17.076934 3.895727-22.844288 10.494005L200.312188 398.371056c-7.92653 9.067516-9.818623 21.931498-4.839215 32.896224S211.383338 449.2744 223.425605 449.2744z" p-id="2868"></path><path d="M222.354204 829.113381l581.732178 0c16.954137 0 30.699186-13.745049 30.699186-30.699186s-13.745049-30.699186-30.699186-30.699186L222.354204 767.715009c-16.954137 0-30.699186 13.745049-30.699186 30.699186S205.400067 829.113381 222.354204 829.113381z" p-id="2869"></path><path d="M804.086381 896.729361 222.354204 896.729361c-16.954137 0-30.699186 13.745049-30.699186 30.699186s13.745049 30.699186 30.699186 30.699186l581.732178 0c16.954137 0 30.699186-13.745049 30.699186-30.699186S821.041542 896.729361 804.086381 896.729361z" p-id="2870"></path></svg>